<svg width="14" height="15" viewBox="0 0 14 15" fill="none" xmlns="http://www.w3.org/2000/svg">
<g clip-path="url(#clip0_3752_29621)">
<path d="M8.41016 0.554688C9.09349 0.533943 9.76951 0.700957 10.3643 1.03809C11.2103 1.51796 11.8359 2.30918 12.1074 3.24316C12.218 3.28278 12.327 3.33262 12.4307 3.39258C12.4458 3.40131 12.4602 3.41002 12.4736 3.41992C12.6054 3.49983 12.7285 3.59584 12.8398 3.70605C13.0275 3.89392 13.1755 4.11785 13.2744 4.36426C13.3734 4.61077 13.4207 4.87505 13.415 5.14062C13.4093 5.40619 13.3497 5.66813 13.2402 5.91016C13.1307 6.15211 12.9739 6.37019 12.7783 6.5498C12.9895 6.74358 13.1557 6.98138 13.2656 7.24609C13.3755 7.51089 13.426 7.79658 13.4141 8.08301C13.4021 8.36955 13.328 8.65049 13.1963 8.90527C13.0646 9.15991 12.879 9.38314 12.6523 9.55859L12.6299 9.5752L12.6426 9.59375C12.8701 9.94491 12.9839 10.3666 12.9541 10.7988L12.9492 10.8623C12.9182 11.1681 12.8155 11.4634 12.6504 11.7227C12.4853 11.9817 12.2619 12.1991 11.998 12.3564C11.734 12.5138 11.4365 12.6069 11.1299 12.6289C10.8232 12.6509 10.5153 12.6006 10.2314 12.4824C10.115 12.8162 9.91103 13.1131 9.64062 13.3408C9.3702 13.5685 9.04304 13.7194 8.69434 13.7773C8.34567 13.8352 7.98765 13.7979 7.6582 13.6699C7.32868 13.5419 7.03942 13.327 6.82129 13.0488C6.52321 13.1918 6.19862 13.2716 5.86816 13.2812C5.84485 13.2842 5.81998 13.2852 5.79492 13.2852H5.27148L5.23242 13.2832C4.58149 13.2441 4.59444 12.2482 5.27148 12.248H5.74121L5.76758 12.2461L5.79492 12.2451C6.15072 12.2512 6.49409 12.1154 6.75 11.8682C7.0058 11.621 7.15394 11.2824 7.16016 10.9268C7.16619 10.571 7.0304 10.2266 6.7832 9.9707C6.53595 9.7149 6.19653 9.56864 5.84082 9.5625C5.82546 9.56429 5.8094 9.56433 5.79395 9.56445H1.6377C1.50019 9.56445 1.36776 9.5103 1.27051 9.41309C1.17348 9.31599 1.11931 9.18413 1.11914 9.04688C1.11914 8.90944 1.17338 8.77692 1.27051 8.67969C1.36776 8.58243 1.50016 8.52734 1.6377 8.52734H5.74121L5.76758 8.52539L5.7959 8.52441C6.12618 8.52497 6.44498 8.40352 6.69141 8.18359C6.93783 7.96359 7.09506 7.66032 7.13184 7.33203C7.16849 7.0038 7.08228 6.67329 6.89062 6.4043C6.69897 6.13545 6.41488 5.94654 6.09277 5.87402L6.01074 5.85547C5.95337 5.84253 5.89455 5.83402 5.83594 5.8291C5.8224 5.83031 5.80852 5.8311 5.79492 5.83105H1.6377C1.56819 5.83339 1.49849 5.82185 1.43359 5.79688C1.36883 5.77192 1.30969 5.73375 1.25977 5.68555C1.20992 5.63732 1.16971 5.57945 1.14258 5.51562C1.11544 5.45163 1.10158 5.38201 1.10156 5.3125C1.1016 5.2431 1.11551 5.17426 1.14258 5.11035C1.16972 5.04636 1.20982 4.98779 1.25977 4.93945C1.30962 4.89135 1.36896 4.85403 1.43359 4.8291C1.49851 4.80411 1.56817 4.79259 1.6377 4.79492H5.74121L5.76855 4.79199H5.7959C6.15151 4.7986 6.49472 4.66268 6.75098 4.41602C7.00724 4.16927 7.15624 3.83125 7.16309 3.47559C7.16982 3.11975 7.03396 2.77492 6.78711 2.51855C6.5404 2.26255 6.20215 2.11524 5.84668 2.1084C5.82994 2.10992 5.8127 2.11032 5.7959 2.11035H5.27246L5.23242 2.10938C4.58149 2.0703 4.59444 1.07442 5.27148 1.07422H5.73828C5.75699 1.07225 5.77611 1.07124 5.79492 1.07129C6.02929 1.0713 6.25575 1.10503 6.46973 1.16797L6.4873 1.15625C7.06057 0.783313 7.72658 0.57557 8.41016 0.554688ZM8.59961 7.63867C8.45558 7.63881 8.31351 7.67313 8.18457 7.7373L8.14453 7.75781L8.09668 7.78711C7.96615 8.28291 7.67836 8.72353 7.27734 9.04297C7.55716 9.26546 7.78324 9.54906 7.93848 9.87109C8.09355 10.193 8.17408 10.546 8.17383 10.9033C8.17454 11.4517 7.9853 11.984 7.6377 12.4082C7.76756 12.5747 7.94995 12.6929 8.15527 12.7422C8.36073 12.7914 8.5772 12.7693 8.76855 12.6797C8.95982 12.5901 9.11523 12.4383 9.20898 12.249C9.30274 12.0596 9.32904 11.8433 9.28418 11.6367L9.2666 11.5645L9.25879 11.5186L9.25586 11.4854V11.4277L9.25879 11.3965L9.2666 11.3506L9.27734 11.3096L9.29004 11.2715L9.31055 11.2256L9.31348 11.2197C9.33734 11.1733 9.36844 11.1308 9.40527 11.0938L9.4375 11.0635L9.46191 11.0439L9.49121 11.0234L9.51562 11.0088L9.54688 10.9912L9.58984 10.9736L9.62207 10.9619L9.64551 10.9551L9.69141 10.9463L9.73438 10.9414L9.76074 10.9404H9.78809L9.8125 10.9414L9.84668 10.9443L9.87891 10.9502L9.91504 10.959L9.96191 10.9746L9.99316 10.9883L10.0186 11L10.0498 11.0186L10.0703 11.0322C10.1052 11.0567 10.1365 11.085 10.165 11.1182L10.1875 11.1445L10.207 11.1729C10.2794 11.2848 10.3751 11.3802 10.4873 11.4521C10.5995 11.5241 10.7264 11.5708 10.8584 11.5898C10.9904 11.6088 11.1259 11.5999 11.2539 11.5625C11.3817 11.5251 11.4997 11.46 11.6006 11.373C11.7016 11.2859 11.783 11.1778 11.8389 11.0566C11.8946 10.9356 11.9241 10.8042 11.9248 10.6709C11.9254 10.5375 11.8975 10.4049 11.8428 10.2832C11.788 10.1616 11.7076 10.0529 11.6074 9.96484C11.5157 9.97289 11.4229 9.97504 11.3311 9.96973L11.2979 9.96582L11.2832 9.96289H11.2734C10.863 9.92672 10.4744 9.76282 10.1621 9.49414C9.8499 9.22553 9.62932 8.86606 9.53223 8.46582L9.51758 8.39746C9.49064 8.25602 9.43077 8.12252 9.34375 8.00781C9.25663 7.89312 9.14369 7.79933 9.01465 7.73535C8.88571 7.6715 8.74349 7.63858 8.59961 7.63867ZM5.6084 10.417C5.67783 10.4147 5.74767 10.4262 5.8125 10.4512C5.87727 10.4762 5.93642 10.5142 5.98633 10.5625C6.03624 10.6108 6.07637 10.6685 6.10352 10.7324C6.13067 10.7965 6.14453 10.866 6.14453 10.9355C6.14451 11.0049 6.13057 11.0738 6.10352 11.1377C6.07643 11.2016 6.03616 11.2593 5.98633 11.3076C5.93647 11.3558 5.87719 11.3939 5.8125 11.4189C5.74767 11.4439 5.67783 11.4564 5.6084 11.4541H3.46387C3.32946 11.4496 3.2019 11.3925 3.1084 11.2959C3.01499 11.1992 2.96294 11.07 2.96289 10.9355C2.96289 10.8011 3.01501 10.6719 3.1084 10.5752C3.20191 10.4785 3.32943 10.4215 3.46387 10.417H5.6084ZM11.5449 4.1709C11.3487 4.14948 11.1504 4.19133 10.9795 4.29004C10.8451 4.36777 10.7316 4.47797 10.6504 4.61035C10.5693 4.74273 10.5229 4.89379 10.5146 5.04883L10.5137 5.09863C10.5135 5.23002 10.4628 5.3562 10.373 5.45215C10.2832 5.54816 10.1605 5.60649 10.0293 5.61523L9.99512 5.61719C9.8636 5.61718 9.73668 5.56639 9.64062 5.47656C9.54477 5.38674 9.48631 5.26389 9.47754 5.13281L9.47656 5.09863C9.47629 4.92763 9.4289 4.75925 9.33984 4.61328C9.25064 4.46735 9.12274 4.34787 8.9707 4.26953C8.81857 4.19124 8.64722 4.15677 8.47656 4.16895C8.3058 4.18121 8.14143 4.24056 8.00195 4.33984C7.84675 4.7231 7.59392 5.05903 7.26953 5.31543C7.69746 5.65393 7.99663 6.12975 8.11621 6.66211C8.37105 6.59728 8.63649 6.58463 8.89648 6.62402C9.15656 6.66349 9.40663 6.75406 9.63086 6.8916C9.8551 7.02924 10.0501 7.21075 10.2031 7.4248C10.3561 7.6389 10.4649 7.88194 10.5225 8.13867L10.5342 8.19336C10.5749 8.38588 10.6753 8.56142 10.8213 8.69336C10.9674 8.82521 11.152 8.90771 11.3477 8.92871L11.4199 8.93457L11.4443 8.93555C11.4793 8.93555 11.5148 8.93377 11.5498 8.92969L11.5996 8.92383L11.6348 8.91406C11.8562 8.86719 12.0538 8.74179 12.1895 8.56055C12.325 8.37943 12.3894 8.15521 12.3721 7.92969C12.3546 7.7042 12.2564 7.49213 12.0947 7.33398C11.9328 7.17583 11.7182 7.08155 11.4922 7.06934L11.4463 7.06836C11.3705 7.0684 11.2952 7.05159 11.2266 7.01953C11.1578 6.98731 11.0964 6.94017 11.0479 6.88184L11.0283 6.85547C10.9857 6.79749 10.9549 6.73141 10.9395 6.66113C10.924 6.59068 10.923 6.51695 10.9375 6.44629C10.96 6.3355 11.0187 6.23488 11.1035 6.16016C11.1885 6.08537 11.2963 6.04041 11.4092 6.03223H11.4463C11.6304 6.03209 11.8107 5.97714 11.9639 5.875C12.1172 5.77266 12.2369 5.62626 12.3076 5.45605C12.3782 5.28595 12.3969 5.09869 12.3613 4.91797C12.3258 4.73738 12.2381 4.57104 12.1084 4.44043C11.9823 4.31575 11.8227 4.22901 11.6494 4.19141L11.5898 4.18066C11.575 4.17823 11.5595 4.17466 11.5449 4.1709ZM5.61328 6.6709C5.75072 6.67091 5.88324 6.72513 5.98047 6.82227C6.07741 6.91938 6.13172 7.05126 6.13184 7.18848C6.13184 7.32592 6.07761 7.45843 5.98047 7.55566C5.88323 7.65286 5.75077 7.708 5.61328 7.70801H0.518555C0.384252 7.70345 0.256542 7.64636 0.163086 7.5498C0.0697431 7.45318 0.017642 7.3238 0.0175781 7.18945C0.0175781 7.05506 0.069741 6.92578 0.163086 6.8291C0.256555 6.73244 0.384178 6.67546 0.518555 6.6709H5.61328ZM5.60742 2.91797C5.67695 2.91564 5.7466 2.92813 5.81152 2.95312C5.87614 2.97805 5.93551 3.01539 5.98535 3.06348C6.03528 3.1118 6.07541 3.1704 6.10254 3.23438C6.12962 3.29831 6.14353 3.36709 6.14355 3.43652C6.14355 3.50606 6.12969 3.57563 6.10254 3.63965C6.07539 3.70349 6.03522 3.76134 5.98535 3.80957C5.93541 3.85781 5.87632 3.89594 5.81152 3.9209C5.74662 3.94588 5.67693 3.95741 5.60742 3.95508H3.46484C3.39541 3.95741 3.32559 3.94583 3.26074 3.9209C3.19599 3.89594 3.13683 3.85778 3.08691 3.80957C3.03704 3.76134 2.99688 3.7035 2.96973 3.63965C2.94258 3.57563 2.92872 3.50606 2.92871 3.43652C2.92873 3.36707 2.94263 3.29832 2.96973 3.23438C2.99689 3.17033 3.03691 3.11183 3.08691 3.06348C3.13679 3.01533 3.19606 2.97807 3.26074 2.95312C3.32564 2.92815 3.39535 2.91564 3.46484 2.91797H5.60742ZM9.53906 1.78809C8.89586 1.52647 8.17587 1.52265 7.53027 1.77832L7.5 1.79102C7.86449 2.16501 8.09589 2.64935 8.15723 3.16797C8.48908 3.1014 8.83248 3.12074 9.1543 3.22559C9.47627 3.33053 9.76614 3.5171 9.99512 3.7666C10.2592 3.47814 10.6032 3.27422 10.9834 3.18262C10.6996 2.54912 10.1821 2.04971 9.53906 1.78809Z" fill="#2F3640"/>
</g>
<defs>
<clipPath id="clip0_3752_29621">
<rect width="14" height="14" fill="white" transform="translate(0 0.172852)"/>
</clipPath>
</defs>
</svg>
