<svg width="20" height="20" viewBox="0 0 20 20" fill="none" xmlns="http://www.w3.org/2000/svg">
<g clip-path="url(#clip0_3091_5964)">
<path d="M18.4515 14.2827C18.5046 14.2794 18.5577 14.2919 18.6029 14.3198C18.6483 14.3478 18.6836 14.3898 18.7045 14.4389C18.7253 14.488 18.7305 14.5422 18.7191 14.5942C18.7077 14.6463 18.6804 14.694 18.641 14.7299C17.4853 15.779 15.9991 16.7109 14.1976 17.5766C14.2342 17.6016 14.2695 17.6243 14.306 17.646L14.3207 17.6548L14.3363 17.6645C14.5162 17.767 14.6865 17.8178 14.8705 17.8178C15.0554 17.8178 15.2257 17.767 15.4056 17.6645L15.4203 17.6557L15.4369 17.646C15.5533 17.5761 15.6591 17.4986 15.847 17.3423L15.9955 17.2182C16.2277 17.0251 16.3503 16.9333 16.516 16.8383C16.7693 16.6934 17.0262 16.6167 17.307 16.6167C17.5876 16.6167 17.8439 16.6935 18.097 16.8383L18.1166 16.8501C18.273 16.9408 18.3946 17.0327 18.6176 17.2182L18.767 17.3423C18.9507 17.4952 19.0554 17.5729 19.1693 17.6411L19.1927 17.6557L19.2074 17.6645C19.3822 17.7643 19.5467 17.8145 19.724 17.8178H19.7426C19.778 17.815 19.8144 17.8199 19.848 17.8315C19.8815 17.8431 19.9118 17.8622 19.9379 17.8862C19.964 17.9103 19.9851 17.9396 19.9994 17.9721C20.0136 18.0047 20.0218 18.0401 20.0219 18.0757C20.0218 18.1112 20.0136 18.1466 19.9994 18.1792C19.9851 18.2117 19.964 18.241 19.9379 18.2651C19.9118 18.2891 19.8815 18.3082 19.848 18.3198C19.8144 18.3314 19.778 18.3363 19.7426 18.3335C19.4618 18.3335 19.2047 18.2567 18.9506 18.1118C18.9255 18.0973 18.9009 18.0821 18.8763 18.0669L18.8568 18.0551L18.8392 18.0444L18.8226 18.0327C18.6806 17.9359 18.5434 17.8307 18.4135 17.7182L18.2816 17.6079C18.1556 17.4976 18.021 17.3973 17.8793 17.3081L17.8558 17.2934L17.8412 17.2856C17.6804 17.1871 17.4955 17.1347 17.307 17.1323C17.122 17.1323 16.951 17.1821 16.7719 17.2846L16.7562 17.2934L16.7406 17.3032C16.6241 17.3731 16.5185 17.4514 16.3304 17.6079L16.1996 17.7182C16.0649 17.8353 15.9221 17.9441 15.7738 18.0434L15.7562 18.0551L15.7367 18.0669L15.6625 18.1118C15.4233 18.2552 15.1494 18.3318 14.8705 18.3335C14.59 18.3334 14.3343 18.2565 14.0804 18.1118C14.0553 18.0973 14.0299 18.0822 14.0052 18.0669L13.9867 18.0551L13.9681 18.0444L13.9467 18.0307C13.8239 17.9471 13.706 17.8558 13.5931 17.7592C13.5532 17.7405 13.5182 17.7112 13.4926 17.6753L13.4105 17.6079C13.2846 17.4977 13.1498 17.3973 13.0082 17.3081L12.9857 17.2934L12.9701 17.2856C12.8093 17.1871 12.6244 17.1347 12.4359 17.1323C12.2511 17.1323 12.0806 17.1822 11.9008 17.2846L11.8851 17.2934L11.8695 17.3032C11.753 17.3731 11.6475 17.4514 11.4594 17.6079L11.3275 17.7182C11.1929 17.8352 11.0509 17.9442 10.9027 18.0434L10.8656 18.0669L10.7904 18.1118C10.5515 18.255 10.278 18.3317 9.99939 18.3335C9.71876 18.3334 9.46155 18.2567 9.20837 18.1118C9.18334 18.0973 9.1587 18.0822 9.13416 18.0669L9.1156 18.0551L9.09705 18.0444L9.08044 18.0327C8.93848 17.936 8.80114 17.8307 8.67126 17.7182L8.53943 17.6079C8.41358 17.4977 8.27957 17.3972 8.13806 17.3081L8.11462 17.2934L8.099 17.2856C7.93792 17.187 7.75272 17.1344 7.56384 17.1323C7.38 17.1323 7.21031 17.1824 7.03064 17.2846L7.01404 17.2934L6.99939 17.3032C6.88195 17.3732 6.77739 17.4514 6.58923 17.6079L6.4574 17.7182C6.32248 17.8353 6.18012 17.9442 6.03162 18.0434L6.01306 18.0551L5.99548 18.0669L5.92029 18.1118C5.67213 18.26 5.38702 18.3359 5.09802 18.3315C4.47659 18.2565 3.99949 18.0146 3.5238 17.6098L3.49451 17.5854C3.45537 17.5513 3.39597 17.4965 3.33435 17.4399L3.17029 17.2885L3.08142 17.2055L3.07263 17.1977C2.98949 17.115 2.89487 17.0428 2.79236 16.9858C2.76766 16.9735 2.74057 16.9654 2.71326 16.9614H2.70935C2.61039 16.9797 2.51085 17.0108 2.40857 17.0532C2.3901 17.0734 2.36797 17.0906 2.34412 17.104L2.33728 17.1079C2.30478 17.1246 2.26831 17.1353 2.23181 17.1372C2.00563 17.263 1.78981 17.4067 1.58728 17.5678L1.2406 17.8383L1.19568 17.8745C1.10777 17.9427 1.01709 18.008 0.925171 18.0708C0.671141 18.2432 0.464734 18.3334 0.258179 18.3335C0.193546 18.3293 0.132059 18.3012 0.0872803 18.2544C0.0425263 18.2074 0.0171296 18.1444 0.0159912 18.0796C0.0150516 18.0147 0.0391858 17.9521 0.0823975 17.9038C0.125629 17.8555 0.184867 17.8241 0.24939 17.8178H0.258179C0.333174 17.8177 0.454589 17.7669 0.623413 17.6538L0.656616 17.6303C0.720716 17.5854 0.793159 17.5326 0.882202 17.4643L1.20251 17.2143L1.25232 17.1753C1.47557 17.0037 1.67411 16.8643 1.86072 16.7544L1.33337 15.7456C1.31378 15.7078 1.30341 15.6651 1.30408 15.6225C1.30484 15.58 1.31644 15.5376 1.33728 15.5005C1.35829 15.4633 1.38905 15.4314 1.42517 15.4087C1.46129 15.3861 1.50277 15.3724 1.54529 15.3696L18.4515 14.2827ZM1.974 15.8579L2.32654 16.5317C2.43301 16.4943 2.53999 16.467 2.64978 16.4487C2.66399 16.4461 2.6793 16.445 2.69373 16.4448C2.80352 16.4449 2.9102 16.4712 3.01501 16.5219C3.14248 16.5828 3.25992 16.6715 3.41736 16.8139L3.43103 16.8266L3.5072 16.8979L3.62732 17.0102L3.70837 17.0835C3.76254 17.1335 3.813 17.1796 3.84216 17.2046C4.24598 17.5525 4.6316 17.7518 5.13611 17.8169H5.14587C5.32175 17.8121 5.49418 17.7634 5.64587 17.6743L5.66345 17.6645L5.67908 17.6557L5.87244 17.5268C5.93674 17.4791 6.00984 17.4205 6.10388 17.3423L6.25232 17.2182C6.48464 17.025 6.60718 16.9333 6.77283 16.8383C7.02696 16.6934 7.28319 16.6167 7.56482 16.6167C7.84479 16.6167 8.10155 16.6934 8.35486 16.8383L8.37341 16.8501C8.53003 16.9409 8.65314 17.0325 8.87634 17.2182L9.0238 17.3423C9.20871 17.4955 9.31313 17.5728 9.4281 17.6411L9.44958 17.6557L9.46619 17.6645C9.645 17.7676 9.8156 17.8177 9.99939 17.8178C10.1844 17.8178 10.3554 17.767 10.5345 17.6645L10.5502 17.6557L10.7435 17.5268C10.8081 17.479 10.8818 17.4206 10.976 17.3423L11.1234 17.2182C11.3564 17.0252 11.4793 16.9332 11.6449 16.8383C11.898 16.6935 12.1553 16.6167 12.4359 16.6167C12.7165 16.6167 12.9729 16.6935 13.2269 16.8383L13.2474 16.851C13.4031 16.9418 13.5255 17.0346 13.7494 17.2202C15.3052 16.4885 16.6235 15.7106 17.6918 14.8598L17.7094 14.8471L1.974 15.8579ZM3.04333 1.68796C5.05984 2.54959 7.24115 4.11768 8.99939 6.04831C11.0493 8.29827 12.4246 10.9049 12.8646 13.6723C12.8715 13.7173 12.8656 13.7638 12.849 13.8061C12.8325 13.8482 12.8052 13.8853 12.7699 13.9135C12.7343 13.9418 12.6908 13.9606 12.6459 13.9673C12.6013 13.9737 12.5559 13.9682 12.514 13.9516C10.5574 13.1641 8.72921 12.9037 7.02087 13.102C5.57211 13.2688 4.24038 13.7611 3.00818 14.52C2.76339 14.6715 2.49205 14.3696 2.67029 14.143C4.21695 12.1805 4.82175 9.98361 4.62341 7.64694C4.46084 5.7371 3.76417 3.80514 2.72009 2.05612C2.69292 2.00944 2.68079 1.95559 2.68591 1.90182C2.6911 1.84807 2.71288 1.79698 2.74841 1.75632C2.78411 1.71566 2.83242 1.68647 2.88513 1.67429C2.93778 1.66227 2.99355 1.66705 3.04333 1.68796ZM8.14587 4.16647C7.90344 3.99899 8.08596 3.62278 8.36755 3.70847C9.84916 4.16105 11.61 5.46055 13.1849 7.2446C14.8382 9.11787 16.1445 11.3564 16.807 13.563C16.8204 13.6085 16.8213 13.6567 16.809 13.7026C16.7966 13.7484 16.772 13.79 16.7377 13.8227C16.7032 13.8554 16.6601 13.8782 16.6136 13.8882C16.5673 13.898 16.5187 13.8951 16.474 13.8794L16.4545 13.8706L16.1332 13.7426C16.0529 13.7104 15.9722 13.6788 15.891 13.6489L15.8773 13.644C15.3109 13.4383 14.8778 13.4018 14.2572 13.56C14.1919 13.5765 14.1221 13.5675 14.0638 13.5337C14.0055 13.4998 13.9627 13.4434 13.9447 13.3784C12.8147 9.26941 10.8941 6.06309 8.14587 4.16647ZM3.56775 2.50925C4.42426 4.12572 4.99053 5.86822 5.13806 7.603C5.31555 9.69706 4.88021 11.6916 3.74451 13.5132L3.72791 13.5385H3.72986C4.72801 13.0545 5.78843 12.731 6.91736 12.5952L6.96326 12.5903C8.61401 12.3987 10.3662 12.6143 12.2211 13.2876L12.2758 13.3091L12.2699 13.2758C11.7757 10.8176 10.513 8.49435 8.6781 6.45944L8.61951 6.39499C7.13207 4.76181 5.33266 3.39493 3.60779 2.51999L3.56091 2.49655L3.56775 2.50925ZM10.2006 5.23483C12.0646 7.14723 13.4376 9.76091 14.3451 12.894L14.3773 13.0044L14.3959 13.0014C14.9875 12.8906 15.4658 12.9484 16.0316 13.1508L16.0541 13.1587L16.1088 13.1792L16.1469 13.1938L16.1273 13.1333C15.4515 11.2109 14.286 9.28308 12.8461 7.63815L12.7982 7.58444C11.9482 6.62198 11.0457 5.8069 10.1732 5.20358L10.1605 5.19479L10.2006 5.23483Z" fill="black"/>
</g>
<defs>
<clipPath id="clip0_3091_5964">
<rect width="20" height="20" fill="white"/>
</clipPath>
</defs>
</svg>
