<svg width="14" height="14" viewBox="0 0 14 14" fill="none" xmlns="http://www.w3.org/2000/svg">
<path d="M6.06445 0.172852C9.05082 0.173098 11.4716 2.33439 11.4717 5L11.4707 5.00195C11.4705 7.65897 9.064 9.81595 6.09082 9.82812H11.5771L13.6875 13.5898H8.18262L6.07031 9.82812C6.069 9.82816 6.06772 9.82901 6.06641 9.8291V13.5898H0.582031L2.50195 6.88086H4.33691C4.24184 6.30285 4.18947 5.66666 4.18945 5C4.18949 2.33424 5.02964 0.172852 6.06445 0.172852ZM6.06445 1.05664C5.52313 1.05664 5.08401 2.82307 5.08398 5C5.08401 7.17704 5.52212 8.94265 6.06445 8.94336C6.60623 8.94281 7.04489 7.17714 7.04492 5C7.0449 2.82376 6.6067 1.05775 6.06445 1.05664Z" fill="#2F3640"/>
</svg>
