<svg width="14" height="14" viewBox="0 0 14 14" fill="none" xmlns="http://www.w3.org/2000/svg">
<path fill-rule="evenodd" clip-rule="evenodd" d="M12.0208 1.39919C10.3192 0.844752 8.85565 2.02135 8.5144 3.09808C8.5144 3.09808 7.28649 6.97799 6.76324 8.59653C6.51357 9.36907 5.89466 10.6329 4.72916 10.6329C3.78008 10.6329 3.29241 9.75649 3.0865 9.23419L1.67133 5.52245C1.50742 5.13159 1.67892 4.35159 2.33633 4.11799C3.03867 3.87005 3.49016 4.44802 3.60683 4.75508L5.36966 9.19746C5.78966 8.66483 6.05683 7.79817 6.23066 7.18461L5.07333 4.19433C4.52441 2.79906 3.0725 2.16426 1.72792 2.65212C0.638837 3.047 -0.40941 4.39923 0.160505 6.0987L1.62117 9.79494C1.84283 10.3551 2.71842 12.1843 4.69825 12.1843C7.07416 12.1843 7.96549 10.191 8.46015 8.61547C8.70749 7.82744 10.0637 3.56643 10.0637 3.56643C10.2609 2.92992 11.0612 2.74683 11.5617 2.90753C11.9146 3.02003 12.5522 3.49927 12.3463 4.24197C12.3078 4.37742 11.2263 7.80563 10.8273 8.8485C10.6191 9.3926 10.0911 10.5738 8.88832 10.4096C8.52199 11.2074 8.21749 11.6718 7.75665 12.0885C9.25698 12.7875 11.4433 12.0833 12.3638 9.34726C12.7056 8.32965 13.9061 4.66038 13.9061 4.66038C14.255 3.53371 13.6326 1.92378 12.0208 1.39919Z" fill="#2F3640"/>
</svg>
